<svg width="249" height="107" viewBox="0 0 249 107" fill="none" xmlns="http://www.w3.org/2000/svg">
<path d="M34.3176 86.284C51.1166 86.284 62.5656 76.44 62.5656 61.246C62.5656 46.48 51.3306 38.134 38.2766 38.134C31.9636 38.134 27.1486 40.06 23.4036 42.628L24.0456 23.689H58.6066V11.491H11.5266L10.4566 50.546L19.5516 54.398C23.7246 51.188 28.7536 49.262 34.5316 49.262C43.3056 49.262 49.1906 54.291 49.1906 61.781C49.1906 68.95 43.5196 74.728 34.5316 74.728C27.1486 74.728 20.4076 70.983 14.7366 65.419L6.81856 74.942C13.3456 81.79 22.3336 86.284 34.3176 86.284Z" fill="black"/>
<path d="M213.538 86.284C232.37 86.284 245.638 70.555 245.638 48.192C245.638 25.936 232.37 10.207 213.538 10.207C194.599 10.207 181.224 25.936 181.224 48.192C181.224 70.555 194.599 86.284 213.538 86.284ZM213.538 74.086C202.624 74.086 194.92 63.386 194.92 48.192C194.92 32.998 202.624 22.405 213.538 22.405C224.345 22.405 232.049 32.998 232.049 48.192C232.049 63.386 224.345 74.086 213.538 74.086Z" fill="black"/>
<g filter="url(#filter0_ii_1767_84320)">
<circle cx="123.5" cy="46.5" r="38.5" fill="url(#paint0_linear_1767_84320)"/>
<mask id="mask0_1767_84320" style="mask-type:alpha" maskUnits="userSpaceOnUse" x="85" y="8" width="77" height="77">
<circle cx="123.5" cy="46.5" r="38.5" fill="url(#paint1_linear_1767_84320)"/>
</mask>
<g mask="url(#mask0_1767_84320)">
<path d="M123.501 2.07715C98.9865 2.07715 79.0781 21.9856 79.0781 46.5002C79.0781 71.0149 98.9865 90.9233 123.501 90.9233C148.016 90.9233 167.924 71.0149 167.924 46.5002C167.924 21.9856 148.016 2.07715 123.501 2.07715ZM123.501 5.36775C129.802 5.36775 135.744 6.81947 141.079 9.34603C137.226 10.1226 133.951 11.8147 133.167 11.6405C131.967 11.3739 126.151 12.3826 124.015 13.1829C121.88 13.9845 122.081 15.0028 121.547 15.1367C121.013 15.2716 120.728 15.745 119.902 16.6792C119.075 17.6127 120.313 18.7358 120.313 18.7358C120.313 18.7358 123.482 19.4485 124.015 17.0905C124.331 15.689 123.88 18.286 124.015 19.3528C124.149 20.4206 126.137 20.6868 127.203 19.3528C127.684 18.7523 127.617 17.2828 127.923 16.782C128.3 16.1703 129.128 16.6389 129.568 16.5763C129.833 16.5434 129.228 16.9923 129.568 17.1933C130.25 17.5958 131.654 16.9072 131.316 18.5301C131.181 19.1833 129.115 19.3145 128.848 20.2783C128.58 21.2421 128.129 21.8207 128.129 21.8207L123.707 21.9236L122.267 19.8669C122.267 19.8669 120.864 20.4741 121.239 21.7179C121.496 22.5758 120.828 23.5689 120.828 23.5689C120.828 23.5689 118.565 23.9305 118.565 24.5972C118.565 24.9634 117.643 25.0092 117.126 25.2142C116.701 25.382 116.414 26.0801 115.995 26.1397C115.744 26.1726 114.182 26.3988 113.835 26.4481C112.896 26.5633 113.321 26.778 113.321 27.168C113.321 27.7014 115.069 27.785 115.069 27.785C115.069 27.785 116.188 28.219 115.789 29.0189C115.388 29.8205 116.075 30.1501 115.275 30.1501C114.927 30.1501 114.122 30.0407 113.321 30.0472C112.285 30.0472 111.288 29.7223 111.264 30.1501C111.166 31.7973 111.161 34.1605 111.161 34.1605C111.161 34.1605 112.565 34.854 113.321 34.6746C114.368 34.4311 115.9 35.2507 116.612 33.3378C116.667 33.1898 116.704 32.8706 116.817 32.7208C117.312 32.0716 117.848 30.7628 118.668 30.3557C119.172 30.1024 119.871 30.2661 120.108 30.2529C120.641 30.22 121.547 29.5331 121.547 29.5331C121.547 29.5331 123.908 29.8523 124.53 32.2067C124.714 32.901 124.539 34.0422 124.941 34.2633C125.184 34.3982 126.278 33.235 126.278 33.235L127.512 33.3378L126.792 31.6925L124.53 29.1218L124.941 28.9225C124.941 28.9225 126.657 29.0379 126.792 29.4367C126.924 29.8375 128.991 30.8511 128.643 32.0075C128.064 33.9203 129.465 34.3726 129.465 34.3726C129.465 34.3726 130.681 34.6587 131.214 33.6528C131.677 32.7755 131.728 32.0075 131.728 32.0075L133.27 31.6925C133.27 31.6925 133.123 28.4905 134.813 28.4019C136.502 28.3164 136.664 28.4019 136.664 28.4019C136.664 28.4019 140.375 29.6278 140.777 30.5614C141.175 31.4946 141.36 32.3822 140.16 32.5152C138.959 32.6501 137.178 32.4188 137.178 32.4188C137.178 32.4188 132.458 31.7031 132.859 33.0358C133.258 34.3701 133.681 35.7094 133.681 35.7094C133.681 35.7094 134.707 35.6018 135.635 35.8058C136.627 36.0328 137.898 35.9086 137.898 35.9086L138.103 38.1709L137.486 38.3766C136.814 38.5641 134.832 38.6926 134.298 38.8907C133.765 39.0882 127.953 38.074 127.82 38.2737C127.687 38.4712 125.802 39.1563 124.735 38.8907C123.668 38.6242 123.398 36.1143 123.398 36.1143C123.398 36.1143 123.207 34.9173 122.473 34.9831C121.738 35.0489 116.714 35.4973 116.714 35.4973C116.714 35.4973 115.069 36.2303 115.069 36.6284C115.069 36.6284 114.604 36.2941 113.938 36.6284C113.271 36.9634 112.252 36.918 111.984 37.4511C111.718 37.9858 110.667 38.9845 110.133 39.919C109.6 40.8516 108.067 40.9243 107.665 42.5926C107.265 44.2597 106.982 47.0473 107.048 48.2484C107.115 49.4491 107.082 52.4279 108.282 53.0814C109.483 53.7369 111.075 55.3579 111.676 55.9607C112.275 56.5599 115.491 57.0496 115.892 56.7834C116.291 56.5168 117.729 55.9607 118.462 55.9607C119.197 55.9607 120.773 56.0757 121.239 56.4749C121.705 56.8757 122.277 57.7361 122.679 58.7371C123.077 59.7375 123.477 61.4262 123.81 62.0277C124.144 62.6279 125.409 63.7721 124.941 64.907C124.475 66.0416 123.676 67.1721 123.81 68.5061C123.943 69.8388 124.742 71.6078 125.044 72.208C125.347 72.8069 127.271 74.6914 127.203 75.293C127.138 75.8922 127.705 75.7443 128.437 76.0128C129.171 76.2793 132.29 75.4167 132.756 74.8816C133.223 74.3482 133.947 72.6644 134.813 71.7967C135.679 70.9286 137.477 69.5071 138.412 68.5061C139.344 67.5051 140.299 66.5852 140.366 65.3183C140.43 64.0495 139.697 61.2607 140.366 60.7938C141.034 60.3265 141.959 59.6045 142.628 58.7371C143.295 57.8707 144.713 57.939 145.713 55.1381C146.714 52.3368 147.044 51.4672 146.844 51.3333C146.646 51.1984 145.056 51.8593 144.787 52.2588C144.521 52.6596 142.962 52.7589 142.628 53.0814C142.295 53.4039 140.777 53.0814 140.777 53.0814C140.777 53.0814 141.418 50.5544 141.085 49.688C140.751 48.8219 139.048 45.4384 138.515 44.2379C138.076 43.2537 138 42.1139 138.206 41.3587C138.291 41.4804 138.345 41.5487 138.412 41.6672C138.648 42.0933 139.928 43.6076 140.468 45.1634C141.622 48.4984 142.936 50.922 142.936 50.922C142.936 50.922 144.674 50.9879 147.564 48.7625C149.53 47.2508 151.633 47.1723 151.985 46.3974C152.652 44.9291 149.929 43.621 149.929 43.621H147.461L145.61 40.4332L146.124 40.2275C146.124 40.2275 148.174 42.5926 149.106 42.5926C150.039 42.5926 152.522 42.3786 153.322 43.3125C154.122 44.246 156.624 45.8242 157.024 47.4257C157.426 49.0256 157.222 51.2621 157.95 52.0531C158.974 53.166 159.903 53.0814 159.903 53.0814L161.137 50.2022L164.017 46.9116L164.627 46.6031C164.571 69.2914 146.203 87.6327 123.501 87.6327C112.729 87.6327 102.963 83.4645 95.6339 76.7005L96.8679 74.8816L98.3076 69.1231L94.8113 66.9636L90.8009 65.6268L88.1273 59.1485C88.1273 59.1485 85.6318 57.1313 83.5641 56.1985C82.8108 53.0828 82.3687 49.8491 82.3687 46.5002C82.3687 44.0736 82.6223 41.7091 83.0243 39.3984C85.5531 37.4606 88.9499 35.9086 88.9499 35.9086C88.9499 35.9086 90.8253 35.6947 87.6131 30.3557C87.1493 29.5848 86.8782 28.8747 86.7005 28.1963C88.0499 25.4855 89.657 22.9289 91.5464 20.5996C91.3828 21.5737 90.7429 25.6303 91.932 26.3453C93.2639 27.1456 94.5429 24.6773 94.8113 23.8774C95.0778 23.0771 97.8569 20.0275 98.9245 18.4273C99.6854 17.286 99.4165 15.0704 98.6353 13.7742C105.544 8.51882 114.141 5.36775 123.501 5.36775ZM115.378 12.7716C114.739 12.8341 113.424 13.178 113.424 14.2112V16.165C113.424 16.165 113.028 16.8687 112.807 17.0905C112.583 17.3143 112.777 18.336 112.91 18.7358C113.043 19.1376 113.115 20.3811 113.115 20.3811C113.115 20.3811 113.76 20.7192 113.938 20.8953C114.116 21.0697 115.636 21.4556 116.303 21.1009C116.97 20.7465 117.356 19.8089 117.845 19.7641C118.335 19.718 118.037 19.7213 117.948 19.3528C117.86 18.9981 118.36 17.7075 118.36 17.7075L117.023 16.5763C117.023 16.5763 116.214 14.8471 116.303 14.3141C116.391 13.779 115.644 12.8371 115.686 12.7716C115.696 12.7387 115.59 12.7387 115.378 12.7716ZM111.881 16.6792C111.7 16.7582 111.351 17.1955 111.161 17.2962C110.908 17.4245 110.987 17.8669 110.853 18.2216C110.72 18.5777 110.339 19.8669 110.339 19.8669L111.161 20.1754C111.159 20.1754 112.468 19.9285 112.601 19.6613C112.708 19.4474 112.322 18.2809 112.19 17.8103C112.157 17.6984 112.19 17.6047 112.19 17.6047L111.984 16.782C111.951 16.7162 111.941 16.6496 111.881 16.6792ZM146.33 27.9906C146.632 27.9906 147.225 28.2004 147.358 28.2991C147.536 28.434 147.536 29.9957 147.358 30.9727C147.18 31.952 147.914 32.5298 148.181 32.618C148.449 32.7069 148.638 34.8474 148.592 35.2916C148.548 35.7362 147.292 36.0705 146.947 36.1143C146.602 36.1603 145.155 36.1472 145.199 35.4973C145.244 34.851 144.951 32.7432 144.684 31.8982C144.418 31.0532 144.49 29.8587 144.89 29.6359C145.291 29.4154 146.124 28.0934 146.124 28.0934C146.158 28.0211 146.229 27.9939 146.33 27.9906ZM144.479 64.3929C144.319 64.3929 144.087 64.4266 143.862 64.4957C143.862 64.4957 143.768 66.4663 142.833 67.0665C141.901 67.667 141.291 68.8314 141.291 69.4316C141.291 70.0325 141.091 70.5789 141.291 71.1797C141.491 71.7799 141.946 72.2755 142.525 72.208C143.105 72.1422 143.729 70.8908 143.862 70.3571C143.995 69.8237 144.493 68.6733 144.89 68.3004C145.291 67.9303 145.369 66.8817 145.301 66.3466C145.244 65.8804 145.597 64.3675 144.479 64.3929Z" fill="url(#paint2_linear_1767_84320)"/>
<path d="M112.043 50.1665C112.802 50.1665 113.418 49.5509 113.418 48.7915C113.418 48.0321 112.802 47.4165 112.043 47.4165C111.284 47.4165 110.668 48.0321 110.668 48.7915C110.668 49.5509 111.284 50.1665 112.043 50.1665Z" fill="#84B559"/>
<path opacity="0.2" d="M111.323 76.5794C111.702 77.2374 112.543 77.4635 113.201 77.0844C113.859 76.7053 114.085 75.8645 113.706 75.2065C113.327 74.5485 112.486 74.3225 111.828 74.7016C111.17 75.0807 110.944 75.9214 111.323 76.5794Z" fill="white"/>
<path opacity="0.89" d="M113.417 45.5833C113.923 45.5833 114.333 45.1729 114.333 44.6667C114.333 44.1604 113.923 43.75 113.417 43.75C112.91 43.75 112.5 44.1604 112.5 44.6667C112.5 45.1729 112.91 45.5833 113.417 45.5833Z" fill="#93C165"/>
<path opacity="0.2" d="M115.982 75.483C116.235 75.9216 116.796 76.0723 117.234 75.8196C117.673 75.5669 117.824 75.0064 117.571 74.5677C117.318 74.129 116.758 73.9783 116.319 74.2311C115.88 74.4838 115.73 75.0443 115.982 75.483Z" fill="white"/>
<path d="M158.793 46.5C159.552 46.5 160.168 45.8844 160.168 45.125C160.168 44.3656 159.552 43.75 158.793 43.75C158.034 43.75 157.418 44.3656 157.418 45.125C157.418 45.8844 158.034 46.5 158.793 46.5Z" fill="#84B559"/>
<path opacity="0.2" d="M95.8417 44.543C96.0945 44.9817 96.655 45.1324 97.0936 44.8797C97.5323 44.6269 97.683 44.0664 97.4303 43.6278C97.1775 43.1891 96.6171 43.0384 96.1784 43.2911C95.7397 43.5439 95.589 44.1043 95.8417 44.543Z" fill="white"/>
<path opacity="0.2" d="M118.459 13.376C118.712 13.8147 119.272 13.9654 119.711 13.7127C120.149 13.4599 120.3 12.8994 120.047 12.4608C119.795 12.0221 119.234 11.8714 118.796 12.1241C118.357 12.3769 118.206 12.9374 118.459 13.376Z" fill="white"/>
<path opacity="0.2" d="M93.7089 56.4595C93.9617 56.8982 94.5222 57.0489 94.9608 56.7962C95.3995 56.5434 95.5502 55.9829 95.2975 55.5443C95.0447 55.1056 94.4842 54.9549 94.0456 55.2076C93.6069 55.4604 93.4562 56.0209 93.7089 56.4595Z" fill="white"/>
<path opacity="0.89" d="M119.835 28.1668C120.341 28.1668 120.751 27.7564 120.751 27.2502C120.751 26.7439 120.341 26.3335 119.835 26.3335C119.328 26.3335 118.918 26.7439 118.918 27.2502C118.918 27.7564 119.328 28.1668 119.835 28.1668Z" fill="#93C165"/>
</g>
</g>
<defs>
<filter id="filter0_ii_1767_84320" x="78" y="8" width="91" height="79" filterUnits="userSpaceOnUse" color-interpolation-filters="sRGB">
<feFlood flood-opacity="0" result="BackgroundImageFix"/>
<feBlend mode="normal" in="SourceGraphic" in2="BackgroundImageFix" result="shape"/>
<feColorMatrix in="SourceAlpha" type="matrix" values="0 0 0 0 0 0 0 0 0 0 0 0 0 0 0 0 0 0 127 0" result="hardAlpha"/>
<feOffset dx="-8"/>
<feGaussianBlur stdDeviation="3.5"/>
<feComposite in2="hardAlpha" operator="arithmetic" k2="-1" k3="1"/>
<feColorMatrix type="matrix" values="0 0 0 0 0.215686 0 0 0 0 0.407843 0 0 0 0 0.188235 0 0 0 0.26 0"/>
<feBlend mode="normal" in2="shape" result="effect1_innerShadow_1767_84320"/>
<feColorMatrix in="SourceAlpha" type="matrix" values="0 0 0 0 0 0 0 0 0 0 0 0 0 0 0 0 0 0 127 0" result="hardAlpha"/>
<feOffset dx="9" dy="2"/>
<feGaussianBlur stdDeviation="3.5"/>
<feComposite in2="hardAlpha" operator="arithmetic" k2="-1" k3="1"/>
<feColorMatrix type="matrix" values="0 0 0 0 0.631373 0 0 0 0 0.811765 0 0 0 0 0.427451 0 0 0 0.2 0"/>
<feBlend mode="normal" in2="effect1_innerShadow_1767_84320" result="effect2_innerShadow_1767_84320"/>
</filter>
<linearGradient id="paint0_linear_1767_84320" x1="85" y1="46.5" x2="152.019" y2="46.5" gradientUnits="userSpaceOnUse">
<stop stop-color="#98C668"/>
<stop offset="1" stop-color="#619148"/>
</linearGradient>
<linearGradient id="paint1_linear_1767_84320" x1="85" y1="78.125" x2="149.167" y2="39.1667" gradientUnits="userSpaceOnUse">
<stop stop-color="#98C668"/>
<stop offset="1" stop-color="#4F8036"/>
</linearGradient>
<linearGradient id="paint2_linear_1767_84320" x1="79.0781" y1="46.5002" x2="179.31" y2="29.1259" gradientUnits="userSpaceOnUse">
<stop stop-color="#BBD7A1"/>
<stop offset="1" stop-color="#A8C496" stop-opacity="0.37"/>
</linearGradient>
</defs>
</svg>
