<svg xmlns="http://www.w3.org/2000/svg" width="24" height="24" fill="#376830" opacity=".5" xmlns:v="https://vecta.io/nano"><path d="M20.438 16.41a.75.75 0 1 0-1.5 0 .75.75 0 1 0 1.5 0zM15 11.25a.75.75 0 1 0-1.5 0v1.5a.75.75 0 1 0 1.5 0v-1.5zm6 9H3A2.25 2.25 0 0 1 .75 18V6A2.25 2.25 0 0 1 3 3.75h18A2.25 2.25 0 0 1 23.25 6v12A2.25 2.25 0 0 1 21 20.25zm-18-15a.75.75 0 0 0-.75.75v12a.75.75 0 0 0 .75.75h18a.75.75 0 0 0 .75-.75V6a.75.75 0 0 0-.75-.75H3z"/><path d="M17.625 4.5h-1.5v15h1.5v-15z"/><path d="M22.5 11.25h-5.625v1.5H22.5v-1.5z"/></svg>