<svg xmlns="http://www.w3.org/2000/svg" width="24" height="24" fill="none" xmlns:v="https://vecta.io/nano"><path d="M17.03 12.97a.75.75 0 0 0-1.061 0l-.595.595L9.311 7.5l3.97-3.97a.75.75 0 0 0 0-1.06l-1.5-1.5c-.141-.139-.33-.218-.528-.218s-.388.077-.529.216c-.008.008-.812.783-1.806.783-.576 0-1.111-.255-1.636-.78a.75.75 0 0 0-1.061 0l-6 6a.75.75 0 0 0 0 1.061l3.75 3.75c.146.147.338.22.53.22s.384-.073.53-.22l3.22-3.22 6.064 6.065-.595.595a.75.75 0 0 0 0 1.061l6.75 6.75c.146.147.338.22.53.22s.384-.073.53-.22l2.25-2.25a.75.75 0 0 0 0-1.061l-6.75-6.75zM4.5 10.189L1.811 7.5l4.978-4.978c.658.484 1.371.728 2.128.728.957 0 1.763-.406 2.273-.749l.499.5L4.5 10.189zM21 21.439l-5.689-5.689 1.189-1.189 5.689 5.689L21 21.439z" fill="#376830" opacity=".5"/></svg>