<svg xmlns="http://www.w3.org/2000/svg" width="24" height="24" fill="none" xmlns:v="https://vecta.io/nano"><path d="M17.994 11.273h2.534c.139 0 .276-.038.394-.109s.214-.173.276-.293l1.724-3.346a.71.71 0 0 0 .047-.536.73.73 0 0 0-.345-.421L17.994 4v7.273zm-11.987 0H3.473c-.139 0-.276-.038-.394-.109s-.214-.173-.276-.293L1.079 7.524a.71.71 0 0 1-.047-.536.73.73 0 0 1 .345-.421L6.006 4v7.273zM14.997 4c0 .772-.316 1.511-.878 2.057s-1.324.852-2.119.852-1.557-.306-2.119-.852S9.003 4.772 9.003 4H6.006v15.273c0 .193.079.378.219.514a.76.76 0 0 0 .53.213h10.489a.76.76 0 0 0 .53-.213c.14-.136.219-.321.219-.514V4h-2.997z" stroke="#376830" stroke-width="1.5" stroke-linejoin="round" opacity=".5"/></svg>