<svg width="75" height="66" viewBox="0 0 75 66" fill="none" xmlns="http://www.w3.org/2000/svg">
<g opacity="0.3">
<path d="M45.056 53.6765C44.5441 53.6765 44.0676 53.9375 43.792 54.3687L37.9213 63.5552C37.7247 63.8629 37.2753 63.8629 37.0787 63.5552L31.208 54.3687C30.9324 53.9375 30.4559 53.6765 29.944 53.6765H7C3.96243 53.6765 1.5 51.214 1.5 48.1765V6.99999C1.5 3.96243 3.96243 1.5 7 1.5H68C71.0376 1.5 73.5 3.96243 73.5 7V48.1765C73.5 51.214 71.0376 53.6765 68 53.6765H45.056Z" stroke="black" stroke-width="3" stroke-linejoin="round"/>
<path d="M46 39C45.4643 37.2745 44.3498 35.758 42.8226 34.6767C41.2954 33.5954 39.4373 33.0073 37.5256 33.0001C35.6138 32.9928 33.7508 33.5668 32.2144 34.6365C30.678 35.7061 29.5504 37.2141 29 38.9356" stroke="black" stroke-width="3" stroke-linecap="round"/>
<circle cx="27" cy="21" r="3" fill="black"/>
<circle cx="49" cy="21" r="3" fill="black"/>
</g>
</svg>
