<svg width="19" height="19" viewBox="0 0 19 19" fill="none" xmlns="http://www.w3.org/2000/svg">
<path d="M15.7424 2.69945C17.542 4.49909 18.4418 6.67291 18.4418 9.22091C18.4418 11.7689 17.542 13.9427 15.7424 15.7424C13.9427 17.542 11.7689 18.4418 9.22091 18.4418C6.67291 18.4418 4.49909 17.542 2.69945 15.7424C0.899818 13.9249 0 11.7511 0 9.22091C0 6.67291 0.899818 4.49909 2.69945 2.69945C4.49909 0.899818 6.67291 0 9.22091 0C11.7689 0 13.9427 0.899818 15.7424 2.69945ZM15.0742 15.1009C16.7135 13.4616 17.5331 11.5016 17.5331 9.22091C17.5331 6.94018 16.7135 4.98909 15.0742 3.36764C13.4527 1.72836 11.5016 0.908727 9.22091 0.908727C6.94018 0.908727 4.98018 1.72836 3.34091 3.36764C1.71945 4.98909 0.908727 6.94018 0.908727 9.22091C0.908727 11.5016 1.71945 13.4616 3.34091 15.1009C4.98018 16.7224 6.94018 17.5331 9.22091 17.5331C11.5016 17.5331 13.4527 16.7224 15.0742 15.1009ZM12.5084 12.348L13.2835 13.0964C12.2678 14.2902 10.9493 14.8871 9.32782 14.8871C7.77764 14.8871 6.45909 14.3436 5.37218 13.2567C4.30309 12.1698 3.76855 10.8156 3.76855 9.19418C3.76855 7.57273 4.30309 6.22745 5.37218 5.15836C6.45909 4.08927 7.77764 3.55473 9.32782 3.55473C10.9493 3.55473 12.2589 4.14273 13.2567 5.31873L12.4816 6.06709C11.7333 5.05145 10.682 4.54364 9.32782 4.54364C8.09836 4.54364 7.04709 4.98018 6.174 5.85327C5.31873 6.72636 4.89109 7.84 4.89109 9.19418C4.89109 10.5305 5.32764 11.6531 6.20073 12.5618C7.07382 13.4527 8.11618 13.8982 9.32782 13.8982C10.682 13.8982 11.7422 13.3815 12.5084 12.348Z" fill="black"/>
</svg>
