<svg width="80" height="80" viewBox="0 0 80 80" fill="none" xmlns="http://www.w3.org/2000/svg">
<circle cx="40" cy="40" r="40" fill="#F5F5F5"/>
<path d="M27.8551 47H32.1211C36.1171 47 38.9611 44.426 38.9611 40.808C38.9611 37.19 36.1171 34.634 32.1211 34.634H27.8551V47ZM29.6731 45.344V36.29H32.2291C35.0911 36.29 37.0891 38.162 37.0891 40.808C37.0891 43.472 35.0911 45.344 32.2291 45.344H29.6731ZM43.566 47H47.832C51.828 47 54.672 44.426 54.672 40.808C54.672 37.19 51.828 34.634 47.832 34.634H43.566V47ZM45.384 45.344V36.29H47.94C50.802 36.29 52.8 38.162 52.8 40.808C52.8 43.472 50.802 45.344 47.94 45.344H45.384Z" fill="black"/>
</svg>
