<svg width="24" height="24" viewBox="0 0 24 24" fill="none" xmlns="http://www.w3.org/2000/svg">
<g opacity="0.7" clip-path="url(#clip0_1_4904)">
<path fill-rule="evenodd" clip-rule="evenodd" d="M23.67 7.37866L17.13 0.436621C16.902 0.197821 16.5888 0.000976562 16.26 0.000976562H2.4C1.0752 0.000976562 0 1.20098 0 2.52578V10.9258C0 11.244 0.126427 11.5493 0.351471 11.7744C0.576515 11.9994 0.88174 12.1258 1.2 12.1258C1.51826 12.1258 1.82349 11.9994 2.04853 11.7744C2.27357 11.5493 2.4 11.244 2.4 10.9258V3.72578C2.4 3.06338 2.9376 2.40098 3.6 2.40098H14.4V7.32578C14.4 8.65178 15.4752 9.60098 16.8 9.60098H21.6V10.9258C21.6 11.244 21.7264 11.5493 21.9515 11.7744C22.1765 11.9994 22.4817 12.1258 22.8 12.1258C23.1183 12.1258 23.4235 11.9994 23.6485 11.7744C23.8736 11.5493 24 11.244 24 10.9258V8.20542C24.0003 7.89766 23.8822 7.60162 23.67 7.37866ZM13.2 18.001C13.2 17.6827 13.0736 17.3776 12.8485 17.1525C12.6235 16.9275 12.3183 16.801 12 16.801C11.6817 16.801 11.3765 16.9275 11.1515 17.1525C10.9264 17.3776 10.8 17.6827 10.8 18.001V20.401C10.8 20.7192 10.9264 21.0245 11.1515 21.2496C11.3765 21.4746 11.6817 21.601 12 21.601C12.3183 21.601 12.6235 21.4746 12.8485 21.2496C13.0736 21.0245 13.2 20.7192 13.2 20.401V18.001ZM15.6 16.801V21.601C15.6 22.2375 15.3471 22.8479 14.8971 23.298C14.447 23.7481 13.8365 24.001 13.2 24.001H10.8C10.1635 24.001 9.55303 23.7481 9.10294 23.298C8.65285 22.8479 8.4 22.2375 8.4 21.601V16.801C8.4 16.1645 8.65285 15.554 9.10294 15.104C9.55303 14.6539 10.1635 14.401 10.8 14.401H13.2C13.8365 14.401 14.447 14.6539 14.8971 15.104C15.3471 15.554 15.6 16.1645 15.6 16.801ZM4.8 18.1258C4.8 17.4634 4.2636 16.801 3.6 16.801H2.4V21.601H3.6C4.2636 21.601 4.8 21.1882 4.8 20.5258V18.1258ZM7.2 16.9258V21.7258C7.2 23.0518 6.126 24.001 4.8 24.001H1.2C0.5376 24.001 0 23.5882 0 22.9258V15.7258C0 15.0634 0.5376 14.401 1.2 14.401H4.8C6.126 14.401 7.2 15.601 7.2 16.9258ZM24 15.6322V15.6634C24 16.3258 23.4636 16.801 22.8 16.801H21.6C21.2508 16.8009 20.9058 16.8772 20.589 17.0242C20.2723 17.1713 19.9914 17.3857 19.7661 17.6525C19.5408 17.9193 19.3764 18.232 19.2844 18.5689C19.1925 18.9058 19.1751 19.2588 19.2336 19.6031C19.4244 20.7839 20.5332 21.601 21.7284 21.601H22.8C23.4636 21.601 24 22.1686 24 22.8322V22.8634C24 23.5258 23.4636 24.001 22.8 24.001H21.8064C19.2984 24.001 17.0604 22.1673 16.8228 19.6713C16.7571 19.0046 16.8318 18.3317 17.0419 17.6956C17.252 17.0594 17.593 16.4743 18.0429 15.9779C18.4927 15.4815 19.0415 15.0846 19.6539 14.813C20.2664 14.5415 20.9289 14.4011 21.5988 14.401H22.7988C23.4636 14.401 23.9988 14.9686 23.9988 15.6322H24Z" fill="black"/>
</g>
<defs>
<clipPath id="clip0_1_4904">
<rect width="24" height="24" fill="white"/>
</clipPath>
</defs>
</svg>
