<svg width="24" height="24" viewBox="0 0 24 24" fill="none" xmlns="http://www.w3.org/2000/svg">
<path opacity="0.7" fill-rule="evenodd" clip-rule="evenodd" d="M23.67 7.37769L17.13 0.435645C16.902 0.196845 16.5888 0 16.26 0H2.4C1.0752 0 0 1.2 0 2.5248V10.9248C0 11.2431 0.126427 11.5483 0.351471 11.7734C0.576515 11.9984 0.88174 12.1248 1.2 12.1248C1.51826 12.1248 1.82349 11.9984 2.04853 11.7734C2.27357 11.5483 2.4 11.2431 2.4 10.9248V3.7248C2.4 3.0624 2.9376 2.4 3.6 2.4H14.4V7.3248C14.4 8.65081 15.4752 9.6 16.8 9.6H21.6V10.9248C21.6 11.2431 21.7264 11.5483 21.9515 11.7734C22.1765 11.9984 22.4817 12.1248 22.8 12.1248C23.1183 12.1248 23.4235 11.9984 23.6485 11.7734C23.8736 11.5483 24 11.2431 24 10.9248V8.20444C24.0003 7.89668 23.8822 7.60065 23.67 7.37769ZM13.2 18C13.2 17.6817 13.0736 17.3766 12.8485 17.1516C12.6235 16.9265 12.3183 16.8 12 16.8C11.6817 16.8 11.3765 16.9265 11.1515 17.1516C10.9264 17.3766 10.8 17.6817 10.8 18V20.4C10.8 20.7183 10.9264 21.0235 11.1515 21.2486C11.3765 21.4736 11.6817 21.6 12 21.6C12.3183 21.6 12.6235 21.4736 12.8485 21.2486C13.0736 21.0235 13.2 20.7183 13.2 20.4V18ZM15.6 16.8V21.6C15.6 22.2365 15.3471 22.8469 14.8971 23.297C14.447 23.7471 13.8365 24 13.2 24H10.8C10.1635 24 9.55303 23.7471 9.10294 23.297C8.65285 22.8469 8.4 22.2365 8.4 21.6V16.8C8.4 16.1635 8.65285 15.5531 9.10294 15.103C9.55303 14.6529 10.1635 14.4 10.8 14.4H13.2C13.8365 14.4 14.447 14.6529 14.8971 15.103C15.3471 15.5531 15.6 16.1635 15.6 16.8ZM4.8 18.1248C4.8 17.4624 4.2636 16.8 3.6 16.8H2.4V21.6H3.6C4.2636 21.6 4.8 21.1872 4.8 20.5248V18.1248ZM7.2 16.9248V21.7248C7.2 23.0508 6.126 24 4.8 24H1.2C0.5376 24 0 23.5872 0 22.9248V15.7248C0 15.0624 0.5376 14.4 1.2 14.4H4.8C6.126 14.4 7.2 15.6 7.2 16.9248ZM24 15.6312V15.6624C24 16.3248 23.4636 16.8 22.8 16.8H21.6C21.2508 16.8 20.9058 16.8762 20.589 17.0232C20.2723 17.1703 19.9914 17.3847 19.7661 17.6515C19.5408 17.9183 19.3764 18.231 19.2844 18.5679C19.1925 18.9048 19.1751 19.2578 19.2336 19.6021C19.4244 20.7829 20.5332 21.6 21.7284 21.6H22.8C23.4636 21.6 24 22.1676 24 22.8312V22.8624C24 23.5248 23.4636 24 22.8 24H21.8064C19.2984 24 17.0604 22.1664 16.8228 19.6704C16.7571 19.0036 16.8318 18.3307 17.0419 17.6946C17.252 17.0584 17.593 16.4733 18.0429 15.9769C18.4927 15.4805 19.0415 15.0836 19.6539 14.8121C20.2664 14.5405 20.9289 14.4001 21.5988 14.4H22.7988C23.4636 14.4 23.9988 14.9676 23.9988 15.6312H24Z" fill="black"/>
</svg>
