<svg xmlns="http://www.w3.org/2000/svg" width="20" height="20" fill="none" opacity=".85" stroke="#000" stroke-width="1.5" stroke-linejoin="round" xmlns:v="https://vecta.io/nano"><path d="M9.166 3.334H3.333c-.442 0-.866.176-1.179.488S1.666 4.558 1.666 5v11.667c0 .442.176.866.488 1.179s.736.488 1.179.488h11.667c.442 0 .866-.176 1.179-.488s.488-.736.488-1.179v-5.833" stroke-linecap="round"/><path d="M15.416 2.083a1.77 1.77 0 0 1 2.5 0 1.77 1.77 0 0 1 0 2.5L9.999 12.5l-3.333.833L7.499 10l7.917-7.917z"/></svg>