<svg width="245" height="107" viewBox="0 0 245 107" fill="none" xmlns="http://www.w3.org/2000/svg">
<path d="M41.4694 85H54.7374V69.057H64.9024V57.608H54.7374V11.491H38.7944L3.91242 58.678L5.19642 69.057H41.4694V85ZM18.1434 57.608L41.4694 26.043V57.608H18.1434Z" fill="black"/>
<path d="M216.04 85H229.308V69.057H239.473V57.608H229.308V11.491H213.365L178.483 58.678L179.767 69.057H216.04V85ZM192.714 57.608L216.04 26.043V57.608H192.714Z" fill="black"/>
<path d="M123.694 85.4046C145.226 85.4046 162.681 67.9495 162.681 46.4176C162.681 24.8857 145.226 7.43066 123.694 7.43066C102.162 7.43066 84.707 24.8857 84.707 46.4176C84.707 67.9495 102.162 85.4046 123.694 85.4046Z" fill="#50AC17"/>
<path d="M123.694 85.4046C145.226 85.4046 162.681 67.9495 162.681 46.4176C162.681 24.8857 145.226 7.43066 123.694 7.43066C102.162 7.43066 84.707 24.8857 84.707 46.4176C84.707 67.9495 102.162 85.4046 123.694 85.4046Z" fill="url(#paint0_linear_1_7832)"/>
<path d="M123.694 85.4046C145.226 85.4046 162.681 67.9495 162.681 46.4176C162.681 24.8857 145.226 7.43066 123.694 7.43066C102.162 7.43066 84.707 24.8857 84.707 46.4176C84.707 67.9495 102.162 85.4046 123.694 85.4046Z" fill="url(#paint1_linear_1_7832)"/>
<path opacity="0.4" d="M107.642 29.7507C96.5232 40.8694 88.3861 44.0172 84.7452 44.9089C84.726 45.4104 84.707 45.9118 84.707 46.4179C84.707 49.2686 85.0211 52.0452 85.6022 54.7219C92.1698 53.2401 98.8702 44.7573 101.645 40.8692C102.582 39.5573 103.641 38.3374 104.808 37.2258C107.392 34.761 111.842 30.2191 112.313 27.7499C112.979 24.2465 107.642 29.7507 107.642 29.7507ZM147.055 15.2034C143.59 12.6056 139.714 10.6054 135.589 9.28545C135.498 13.2431 133.874 23.2751 121.861 37.8322C121.022 38.8489 122.002 40.3296 123.265 39.9551C127.963 38.5621 136.79 33.4362 147.055 15.2034ZM105.606 48.3663C102.037 49.6489 100.497 52.2158 100.497 52.2158C96.0999 59.0556 90.567 61.1939 87.8874 61.8512C88.888 64.1681 90.1115 66.3822 91.5406 68.4624C94.3424 66.9806 98.6476 63.0203 100.899 56.9087C102.236 53.2805 104.388 51.012 106.281 49.6302C106.961 49.1336 106.399 48.0815 105.606 48.3663ZM113.885 8.67651C113.109 12.0502 110.267 19.4707 99.9659 24.2173C99.9659 24.2173 97.6927 25.4624 97.1598 26.4454C96.8839 26.9547 97.4338 27.5177 97.9425 27.2406C98.6704 26.844 99.7234 26.3406 101.167 25.8032C101.689 25.6087 114.044 19.7464 118.458 7.79053C116.904 7.99953 115.376 8.29017 113.885 8.67651ZM126.704 48.9043C122.443 52.6013 118.075 57.6892 109.708 64.4679C104.367 68.7945 97.7217 71.2664 94.5338 72.2834C97.5004 75.6252 101.028 78.4567 104.976 80.6217C107.992 77.7322 112.76 73.0273 117.652 67.6456C124.007 60.6547 126.698 54.4002 128.328 50.0319C128.698 49.0409 127.503 48.2109 126.704 48.9043ZM155.484 23.8622C154.326 22.2319 153.045 20.6928 151.652 19.2585C150.77 20.8445 149.702 23.5227 149.641 27.2893C149.534 33.7505 144.98 37.2461 144.98 37.2461C144.98 37.2461 142.418 38.9078 140.709 42.4553C140.463 42.9666 141.142 43.4189 141.512 42.988C142.952 41.3068 145.022 39.1931 146.887 38.4111C150.171 37.0342 151.971 33.4327 152.607 29.3017C152.915 27.2971 154.221 25.3435 155.484 23.8622ZM120.349 75.5161C117.562 79.303 113.992 82.629 112.669 83.8136C113.874 84.1685 115.096 84.4646 116.329 84.7007C119.002 81.4244 120.456 78.1932 121.217 75.968C121.401 75.4298 120.686 75.0582 120.349 75.5161ZM158.309 55.1707C157.55 57.7945 156.731 59.8502 156.009 61.3881C155.834 61.7618 156.361 62.0513 156.59 61.7082C157.625 60.1558 158.796 58.0541 159.777 55.4056C160.303 53.9885 161.216 52.7483 162.319 51.674C162.518 50.1896 162.633 48.695 162.662 47.1975C161.474 48.3585 159.583 50.7691 158.309 55.1707ZM152.713 51.5458C152.713 51.5458 157.689 42.7217 161.895 38.5949C161.267 35.5119 160.264 32.5172 158.91 29.6771C157.107 33.8141 152.554 43.8035 148.582 48.6857C148.582 48.6857 138.837 47.9443 132.481 68.1758C132.481 68.1758 127.28 80.2066 120.645 85.2748C121.652 85.3529 122.667 85.4047 123.694 85.4047C124.623 85.4047 125.54 85.3607 126.453 85.2967C128.568 82.6405 134.174 75.9201 138.307 73.8956C138.307 73.8956 147.098 73.8956 151.759 63.4093C151.759 63.4093 154.302 57.1597 152.713 51.5458ZM147.812 63.2752C145.356 67.5291 141.799 70.0742 139.868 68.9594C137.938 67.8445 138.363 63.4918 140.819 59.2377C143.276 54.984 146.832 52.4389 148.763 53.5537C150.694 54.6686 150.268 59.0213 147.812 63.2752Z" fill="white"/>
<path d="M135.951 25.3379C136.547 25.3379 137.03 24.8545 137.03 24.2583C137.03 23.6621 136.547 23.1787 135.951 23.1787C135.354 23.1787 134.871 23.6621 134.871 24.2583C134.871 24.8545 135.354 25.3379 135.951 25.3379Z" fill="#47AD1D"/>
<path d="M135.797 21.9516C136.176 21.9516 136.484 21.6439 136.484 21.2644C136.484 20.8848 136.176 20.5771 135.797 20.5771C135.417 20.5771 135.109 20.8848 135.109 21.2644C135.109 21.6439 135.417 21.9516 135.797 21.9516Z" fill="#47AD1D"/>
<path d="M134.198 73.6772C135.391 73.6772 136.358 72.7104 136.358 71.5178C136.358 70.3252 135.391 69.3584 134.198 69.3584C133.006 69.3584 132.039 70.3252 132.039 71.5178C132.039 72.7104 133.006 73.6772 134.198 73.6772Z" fill="#47AD1D"/>
<path d="M134.785 66.6099C135.164 66.6099 135.472 66.3023 135.472 65.9229C135.472 65.5434 135.164 65.2358 134.785 65.2358C134.405 65.2358 134.098 65.5434 134.098 65.9229C134.098 66.3023 134.405 66.6099 134.785 66.6099Z" fill="#47AD1D"/>
<path d="M91.6001 48.0474C92.3048 48.0474 92.876 47.4761 92.876 46.7715C92.876 46.0668 92.3048 45.4956 91.6001 45.4956C90.8955 45.4956 90.3242 46.0668 90.3242 46.7715C90.3242 47.4761 90.8955 48.0474 91.6001 48.0474Z" fill="#47AD1D"/>
<path d="M111.479 67.8266C111.847 67.8266 112.145 67.5282 112.145 67.1601C112.145 66.792 111.847 66.4937 111.479 66.4937C111.111 66.4937 110.812 66.792 110.812 67.1601C110.812 67.5282 111.111 67.8266 111.479 67.8266Z" fill="#47AD1D"/>
<path d="M111.79 65.3584C112.016 65.3584 112.2 65.1745 112.2 64.9478C112.2 64.721 112.016 64.5371 111.79 64.5371C111.563 64.5371 111.379 64.721 111.379 64.9478C111.379 65.1745 111.563 65.3584 111.79 65.3584Z" fill="#47AD1D"/>
<defs>
<linearGradient id="paint0_linear_1_7832" x1="84.707" y1="52.5332" x2="162.681" y2="52.5332" gradientUnits="userSpaceOnUse">
<stop stop-color="#7FD529"/>
<stop offset="1" stop-color="#50AC17"/>
</linearGradient>
<linearGradient id="paint1_linear_1_7832" x1="76.1299" y1="52.5332" x2="214.768" y2="52.5332" gradientUnits="userSpaceOnUse">
<stop stop-color="#A1CF6D"/>
<stop offset="1" stop-color="#376830"/>
</linearGradient>
</defs>
</svg>
