<svg xmlns="http://www.w3.org/2000/svg" width="20" height="20" fill="none" stroke="#000" stroke-width="1.5" stroke-linecap="round" stroke-linejoin="round" xmlns:v="https://vecta.io/nano"><path d="M8.25 3.534a7.6 7.6 0 0 1 1.75-.2c5.833 0 9.167 6.667 9.167 6.667a15.41 15.41 0 0 1-1.8 2.658m-5.6-.892a2.5 2.5 0 0 1-1.785.795 2.5 2.5 0 0 1-1.812-.732 2.5 2.5 0 0 1-.732-1.812 2.5 2.5 0 0 1 .795-1.785m6.717 6.717A8.39 8.39 0 0 1 10 16.667C4.167 16.667.833 10 .833 10 1.87 8.068 3.308 6.381 5.05 5.05l9.9 9.9z"/><path d="M.833.833l18.333 18.333"/></svg>