<svg width="54" height="54" viewBox="0 0 54 54" fill="none" xmlns="http://www.w3.org/2000/svg">
<g clip-path="url(#clip0_3003_52737)">
<path d="M50.6252 15.1875V12.2344C50.6252 11.6749 50.403 11.1384 50.0074 10.7428C49.6118 10.3472 49.0753 10.125 48.5159 10.125H20.6721C20.3938 10.1296 20.1175 10.0781 19.8595 9.97373C19.6015 9.86934 19.3672 9.71413 19.1704 9.51734C18.9736 9.32055 18.8184 9.0862 18.714 8.82821C18.6096 8.57023 18.5582 8.29389 18.5627 8.01562V5.48438C18.5627 4.92493 18.3405 4.38841 17.9449 3.99282C17.5493 3.59724 17.0128 3.375 16.4534 3.375H2.1771C1.59946 3.39022 1.05015 3.62847 0.644317 4.0398C0.238486 4.45114 0.00765813 5.00362 0.000226682 5.58141V47.9039C-0.0138777 48.2492 0.0405728 48.5938 0.160433 48.9179C0.280293 49.242 0.463186 49.5392 0.698546 49.7922C0.933906 50.0452 1.21707 50.2491 1.53167 50.392C1.84628 50.535 2.18609 50.6141 2.53148 50.625H50.6252" fill="#A1CF6D"/>
<path d="M50.6252 15.1875V12.2344C50.6252 11.6749 50.403 11.1384 50.0074 10.7428C49.6118 10.3472 49.0753 10.125 48.5159 10.125H20.6721C20.3938 10.1296 20.1175 10.0781 19.8595 9.97373C19.6015 9.86934 19.3672 9.71413 19.1704 9.51734C18.9736 9.32055 18.8184 9.0862 18.714 8.82821C18.6096 8.57023 18.5582 8.29389 18.5627 8.01562V5.48438C18.5627 4.92493 18.3405 4.38841 17.9449 3.99282C17.5493 3.59724 17.0128 3.375 16.4534 3.375H2.1771C1.59946 3.39022 1.05015 3.62847 0.644317 4.0398C0.238486 4.45114 0.00765813 5.00362 0.000226682 5.58141V47.9039C-0.0138777 48.2492 0.0405728 48.5938 0.160433 48.9179C0.280293 49.242 0.463186 49.5392 0.698546 49.7922C0.933906 50.0452 1.21707 50.2491 1.53167 50.392C1.84628 50.535 2.18609 50.6141 2.53148 50.625H50.6252" fill="white" fill-opacity="0.5"/>
<path d="M2.53125 50.6256C2.86895 50.6459 3.20712 50.5944 3.52343 50.4743C3.83973 50.3543 4.12698 50.1686 4.3662 49.9293C4.60542 49.6901 4.79118 49.4029 4.91121 49.0866C5.03123 48.7703 5.0828 48.4321 5.0625 48.0944L5.22703 21.5458V17.7194C5.23467 17.4416 5.29711 17.1681 5.41077 16.9145C5.52444 16.661 5.68708 16.4323 5.88936 16.2418C6.09164 16.0513 6.32957 15.9026 6.58949 15.8043C6.8494 15.706 7.12617 15.6601 7.40391 15.6691H51.8231C52.1009 15.6601 52.3776 15.706 52.6375 15.8043C52.8975 15.9026 53.1354 16.0513 53.3377 16.2418C53.54 16.4323 53.7026 16.661 53.8163 16.9145C53.9299 17.1681 53.9924 17.4416 54 17.7194V48.0944C53.9556 48.7511 53.6746 49.3694 53.2092 49.8349C52.7438 50.3003 52.1255 50.5812 51.4688 50.6256H2.53125Z" fill="#F2F2F2"/>
</g>
<defs>
<clipPath id="clip0_3003_52737">
<rect width="54" height="54" fill="white"/>
</clipPath>
</defs>
</svg>
