<svg width="56" height="55" viewBox="0 0 56 55" fill="none" xmlns="http://www.w3.org/2000/svg">
<path d="M52 20.1562H4L0 20.1563V50.1563C0 52.3654 1.79086 54.1563 4 54.1563H52C54.2091 54.1563 56 52.3654 56 50.1563V20.1562L52 20.1562Z" fill="#F2F2F2"/>
<path d="M27.4188 0.57142L0 20.1562H56L28.5812 0.57142C28.2335 0.323065 27.7665 0.323065 27.4188 0.57142Z" fill="#F2F2F2"/>
<path d="M27.4188 39.7411L0 20.1562H56L28.5812 39.7411C28.2335 39.9894 27.7665 39.9894 27.4188 39.7411Z" fill="#F2F2F2"/>
<path d="M27.4188 39.7411L0 20.1562H56L28.5812 39.7411C28.2335 39.9894 27.7665 39.9894 27.4188 39.7411Z" fill="black" fill-opacity="0.1"/>
</svg>
