<svg width="140" height="39" viewBox="0 0 140 39" fill="none" xmlns="http://www.w3.org/2000/svg">
<mask id="path-1-outside-1_3385_46903" maskUnits="userSpaceOnUse" x="0.639648" y="0.219482" width="139" height="26" fill="black">
<rect fill="white" x="0.639648" y="0.219482" width="139" height="26"/>
<path d="M1.81181 24.9096H7.08011V23.3601C8.66404 24.5308 10.7645 25.2195 12.6927 25.2195C17.0658 25.2195 20.3714 22.1549 20.3714 18.1262C20.3714 15.8536 19.2351 13.9598 18.3398 13.0645C15.6196 10.3443 10.5579 8.96697 9.49044 7.89954C9.24941 7.65851 9.07724 7.24531 9.07724 6.86654C9.07724 5.97128 9.73147 5.42034 10.7989 5.42034C12.3484 5.42034 13.3814 6.21231 14.0701 7.86511L14.1734 8.17501H19.4417V1.52938H14.1734V2.97558C12.796 1.83928 10.9711 1.21948 8.97394 1.21948C4.60091 1.21948 1.63965 4.00858 1.63965 8.14057C1.63965 9.99997 2.29388 11.5495 3.77451 13.0301C6.28814 15.5437 10.4201 16.198 11.9352 17.713C12.3828 18.1607 12.5206 18.505 12.5206 18.9526C12.5206 19.8823 11.7975 20.4677 10.6612 20.4677C8.90507 20.4677 7.80321 19.538 7.08011 17.4031H1.81181V24.9096Z"/>
<path d="M19.5406 24.9096H28.8032V19.779H26.8749L27.8735 16.8522H33.8649L34.7601 19.779H32.7286V24.9096H44.9524V19.297H43.2307L38.7544 7.14201H40.6482V1.52938H23.8104V7.14201H25.7042L21.2967 19.297H19.5406V24.9096ZM28.8032 13.9254L30.9381 7.45191H31.0069L32.9696 13.9254H28.8032Z"/>
<path d="M44.1829 24.9096H66.4613V15.5437H60.8486V19.297H55.3393V7.14201H57.543V1.52938H44.1829V7.14201H46.2834V19.297H44.1829V24.9096Z"/>
<path d="M69.7296 25.1162H77.0295L84.0539 7.14201H85.7755V1.52938H76.3408V7.14201H78.2691L74.6536 17.0932H74.5847L71.1414 7.14201H73.1041V1.52938H60.5359V7.14201H62.292L69.7296 25.1162Z"/>
<path d="M85.1516 24.9096H107.464V17.4376H101.335V19.297H96.0325V15.4749H100.647V10.7231H96.0325V7.14201H101.335V9.0014H107.464V1.52938H85.1516V7.14201H86.9766V19.297H85.1516V24.9096Z"/>
<path d="M107.149 24.9096H120.716V19.9856H118.237L122.197 16.0947L126.501 19.9856H124.056V24.9096H138.688V19.297H136.347L127.98 12.4103L134.315 7.14201H137.793V1.52938H123.984V6.45334H125.981L122.538 9.86224L118.612 6.45334H120.919V1.52938H107.287V7.14201H109.766L117.445 13.34L109.766 19.297H107.149V24.9096Z"/>
</mask>
<path d="M1.81181 24.9096H7.08011V23.3601C8.66404 24.5308 10.7645 25.2195 12.6927 25.2195C17.0658 25.2195 20.3714 22.1549 20.3714 18.1262C20.3714 15.8536 19.2351 13.9598 18.3398 13.0645C15.6196 10.3443 10.5579 8.96697 9.49044 7.89954C9.24941 7.65851 9.07724 7.24531 9.07724 6.86654C9.07724 5.97128 9.73147 5.42034 10.7989 5.42034C12.3484 5.42034 13.3814 6.21231 14.0701 7.86511L14.1734 8.17501H19.4417V1.52938H14.1734V2.97558C12.796 1.83928 10.9711 1.21948 8.97394 1.21948C4.60091 1.21948 1.63965 4.00858 1.63965 8.14057C1.63965 9.99997 2.29388 11.5495 3.77451 13.0301C6.28814 15.5437 10.4201 16.198 11.9352 17.713C12.3828 18.1607 12.5206 18.505 12.5206 18.9526C12.5206 19.8823 11.7975 20.4677 10.6612 20.4677C8.90507 20.4677 7.80321 19.538 7.08011 17.4031H1.81181V24.9096Z" fill="#47AD1D"/>
<path d="M19.5406 24.9096H28.8032V19.779H26.8749L27.8735 16.8522H33.8649L34.7601 19.779H32.7286V24.9096H44.9524V19.297H43.2307L38.7544 7.14201H40.6482V1.52938H23.8104V7.14201H25.7042L21.2967 19.297H19.5406V24.9096ZM28.8032 13.9254L30.9381 7.45191H31.0069L32.9696 13.9254H28.8032Z" fill="#47AD1D"/>
<path d="M44.1829 24.9096H66.4613V15.5437H60.8486V19.297H55.3393V7.14201H57.543V1.52938H44.1829V7.14201H46.2834V19.297H44.1829V24.9096Z" fill="#47AD1D"/>
<path d="M69.7296 25.1162H77.0295L84.0539 7.14201H85.7755V1.52938H76.3408V7.14201H78.2691L74.6536 17.0932H74.5847L71.1414 7.14201H73.1041V1.52938H60.5359V7.14201H62.292L69.7296 25.1162Z" fill="#47AD1D"/>
<path d="M85.1516 24.9096H107.464V17.4376H101.335V19.297H96.0325V15.4749H100.647V10.7231H96.0325V7.14201H101.335V9.0014H107.464V1.52938H85.1516V7.14201H86.9766V19.297H85.1516V24.9096Z" fill="#47AD1D"/>
<path d="M107.149 24.9096H120.716V19.9856H118.237L122.197 16.0947L126.501 19.9856H124.056V24.9096H138.688V19.297H136.347L127.98 12.4103L134.315 7.14201H137.793V1.52938H123.984V6.45334H125.981L122.538 9.86224L118.612 6.45334H120.919V1.52938H107.287V7.14201H109.766L117.445 13.34L109.766 19.297H107.149V24.9096Z" fill="#47AD1D"/>
<path d="M1.81181 24.9096H7.08011V23.3601C8.66404 24.5308 10.7645 25.2195 12.6927 25.2195C17.0658 25.2195 20.3714 22.1549 20.3714 18.1262C20.3714 15.8536 19.2351 13.9598 18.3398 13.0645C15.6196 10.3443 10.5579 8.96697 9.49044 7.89954C9.24941 7.65851 9.07724 7.24531 9.07724 6.86654C9.07724 5.97128 9.73147 5.42034 10.7989 5.42034C12.3484 5.42034 13.3814 6.21231 14.0701 7.86511L14.1734 8.17501H19.4417V1.52938H14.1734V2.97558C12.796 1.83928 10.9711 1.21948 8.97394 1.21948C4.60091 1.21948 1.63965 4.00858 1.63965 8.14057C1.63965 9.99997 2.29388 11.5495 3.77451 13.0301C6.28814 15.5437 10.4201 16.198 11.9352 17.713C12.3828 18.1607 12.5206 18.505 12.5206 18.9526C12.5206 19.8823 11.7975 20.4677 10.6612 20.4677C8.90507 20.4677 7.80321 19.538 7.08011 17.4031H1.81181V24.9096Z" stroke="#227300" stroke-width="1.6" mask="url(#path-1-outside-1_3385_46903)"/>
<path d="M19.5406 24.9096H28.8032V19.779H26.8749L27.8735 16.8522H33.8649L34.7601 19.779H32.7286V24.9096H44.9524V19.297H43.2307L38.7544 7.14201H40.6482V1.52938H23.8104V7.14201H25.7042L21.2967 19.297H19.5406V24.9096ZM28.8032 13.9254L30.9381 7.45191H31.0069L32.9696 13.9254H28.8032Z" stroke="#227300" stroke-width="1.6" mask="url(#path-1-outside-1_3385_46903)"/>
<path d="M44.1829 24.9096H66.4613V15.5437H60.8486V19.297H55.3393V7.14201H57.543V1.52938H44.1829V7.14201H46.2834V19.297H44.1829V24.9096Z" stroke="#227300" stroke-width="1.6" mask="url(#path-1-outside-1_3385_46903)"/>
<path d="M69.7296 25.1162H77.0295L84.0539 7.14201H85.7755V1.52938H76.3408V7.14201H78.2691L74.6536 17.0932H74.5847L71.1414 7.14201H73.1041V1.52938H60.5359V7.14201H62.292L69.7296 25.1162Z" stroke="#227300" stroke-width="1.6" mask="url(#path-1-outside-1_3385_46903)"/>
<path d="M85.1516 24.9096H107.464V17.4376H101.335V19.297H96.0325V15.4749H100.647V10.7231H96.0325V7.14201H101.335V9.0014H107.464V1.52938H85.1516V7.14201H86.9766V19.297H85.1516V24.9096Z" stroke="#227300" stroke-width="1.6" mask="url(#path-1-outside-1_3385_46903)"/>
<path d="M107.149 24.9096H120.716V19.9856H118.237L122.197 16.0947L126.501 19.9856H124.056V24.9096H138.688V19.297H136.347L127.98 12.4103L134.315 7.14201H137.793V1.52938H123.984V6.45334H125.981L122.538 9.86224L118.612 6.45334H120.919V1.52938H107.287V7.14201H109.766L117.445 13.34L109.766 19.297H107.149V24.9096Z" stroke="#227300" stroke-width="1.6" mask="url(#path-1-outside-1_3385_46903)"/>
<path d="M4.366 38.7805C3.706 38.7805 3.121 38.6485 2.611 38.3845C2.101 38.1145 1.705 37.7335 1.423 37.2415C1.141 36.7435 1 36.1645 1 35.5045C1 34.8445 1.141 34.2685 1.423 33.7765C1.705 33.2785 2.101 32.8945 2.611 32.6245C3.121 32.3545 3.706 32.2195 4.366 32.2195C4.816 32.2195 5.218 32.2675 5.572 32.3635C5.926 32.4595 6.247 32.6125 6.535 32.8225V33.9115C6.271 33.6835 5.968 33.5185 5.626 33.4165C5.284 33.3145 4.897 33.2635 4.465 33.2635C4.033 33.2635 3.64 33.3565 3.286 33.5425C2.938 33.7225 2.662 33.9835 2.458 34.3255C2.254 34.6615 2.152 35.0545 2.152 35.5045C2.152 35.9605 2.248 36.3595 2.44 36.7015C2.632 37.0375 2.899 37.2985 3.241 37.4845C3.583 37.6645 3.973 37.7545 4.411 37.7545C4.873 37.7545 5.254 37.6765 5.554 37.5205V36.1075H4.492V35.1985H6.697V38.1325C6.139 38.5645 5.362 38.7805 4.366 38.7805Z" fill="#227300"/>
<path d="M9.69602 32.3545H10.839V37.7005H13.863V38.6455H9.69602V32.3545Z" fill="#227300"/>
<path d="M19.3495 38.7805C18.7195 38.7805 18.1495 38.6455 17.6395 38.3755C17.1355 38.0995 16.7365 37.7125 16.4425 37.2145C16.1545 36.7165 16.0105 36.1465 16.0105 35.5045C16.0105 34.8625 16.1545 34.2925 16.4425 33.7945C16.7365 33.2965 17.1355 32.9095 17.6395 32.6335C18.1495 32.3575 18.7195 32.2195 19.3495 32.2195C19.9735 32.2195 20.5375 32.3575 21.0415 32.6335C21.5515 32.9095 21.9505 33.2965 22.2385 33.7945C22.5325 34.2925 22.6795 34.8625 22.6795 35.5045C22.6795 36.1465 22.5325 36.7165 22.2385 37.2145C21.9505 37.7065 21.5515 38.0905 21.0415 38.3665C20.5375 38.6425 19.9735 38.7805 19.3495 38.7805ZM19.3495 37.7455C19.7515 37.7455 20.1175 37.6555 20.4475 37.4755C20.7775 37.2895 21.0385 37.0285 21.2305 36.6925C21.4285 36.3505 21.5275 35.9545 21.5275 35.5045C21.5275 35.0605 21.4315 34.6705 21.2395 34.3345C21.0475 33.9925 20.7865 33.7285 20.4565 33.5425C20.1265 33.3565 19.7575 33.2635 19.3495 33.2635C18.9415 33.2635 18.5695 33.3565 18.2335 33.5425C17.9035 33.7285 17.6425 33.9925 17.4505 34.3345C17.2585 34.6705 17.1625 35.0605 17.1625 35.5045C17.1625 35.9545 17.2585 36.3505 17.4505 36.6925C17.6485 37.0285 17.9125 37.2895 18.2425 37.4755C18.5785 37.6555 18.9475 37.7455 19.3495 37.7455Z" fill="#227300"/>
<path d="M25.6821 32.3545H28.6701C29.2461 32.3545 29.6931 32.4985 30.0111 32.7865C30.3351 33.0745 30.4971 33.4945 30.4971 34.0465C30.4971 34.3405 30.4251 34.6075 30.2811 34.8475C30.1431 35.0815 29.9571 35.2615 29.7231 35.3875C30.3771 35.6035 30.7041 36.0865 30.7041 36.8365C30.7041 37.2085 30.6201 37.5325 30.4521 37.8085C30.2841 38.0785 30.0561 38.2855 29.7681 38.4295C29.4861 38.5735 29.1711 38.6455 28.8231 38.6455H25.6821V32.3545ZM28.4901 34.9735C28.7481 34.9735 28.9551 34.9045 29.1111 34.7665C29.2671 34.6225 29.3451 34.4065 29.3451 34.1185C29.3451 33.7885 29.2671 33.5635 29.1111 33.4435C28.9611 33.3175 28.7361 33.2545 28.4361 33.2545H26.8161V34.9735H28.4901ZM28.5621 37.7455C28.8801 37.7455 29.1231 37.6795 29.2911 37.5475C29.4651 37.4155 29.5521 37.1815 29.5521 36.8455C29.5521 36.5095 29.4621 36.2665 29.2821 36.1165C29.1021 35.9665 28.8411 35.8915 28.4991 35.8915H26.8161V37.7455H28.5621Z" fill="#227300"/>
<path d="M35.4571 32.3545H36.5641L39.0751 38.6455H37.9141L37.3381 37.1965H34.6741L34.1071 38.6455H32.9371L35.4571 32.3545ZM37.0231 36.2515L36.0061 33.5785L34.9891 36.2515H37.0231Z" fill="#227300"/>
<path d="M42.0726 32.3545H43.2156V37.7005H46.2396V38.6455H42.0726V32.3545Z" fill="#227300"/>
<path d="M54.4025 32.3545H55.5185L57.6245 36.9625L59.7305 32.3545H60.8465V38.6455H59.7665V34.5595L57.8945 38.6455H57.3545L55.4825 34.5595V38.6455H54.4025V32.3545Z" fill="#227300"/>
<path d="M66.1374 32.3545H67.2444L69.7554 38.6455H68.5944L68.0184 37.1965H65.3544L64.7874 38.6455H63.6174L66.1374 32.3545ZM67.7034 36.2515L66.6864 33.5785L65.6694 36.2515H67.7034Z" fill="#227300"/>
<path d="M72.7529 32.3545H75.3809C76.0769 32.3545 76.6139 32.5255 76.9919 32.8675C77.3699 33.2095 77.5589 33.7045 77.5589 34.3525C77.5589 34.8145 77.4448 35.2075 77.2169 35.5315C76.9889 35.8555 76.6648 36.0865 76.2449 36.2245L77.5229 38.6455H76.3529L75.1379 36.3415H73.8959V38.6455H72.7529V32.3545ZM75.1739 35.3965C75.5459 35.3965 75.8459 35.3095 76.0739 35.1355C76.3018 34.9615 76.4159 34.7005 76.4159 34.3525C76.4159 33.6505 76.0019 33.2995 75.1739 33.2995H73.8959V35.3965H75.1739Z" fill="#227300"/>
<path d="M80.557 32.3545H81.7V35.2075L84.283 32.3545H85.651L82.861 35.4325L85.831 38.6455H84.463L81.7 35.6575V38.6455H80.557V32.3545Z" fill="#227300"/>
<path d="M88.8269 32.3545H93.0839V33.2995H89.9699V35.0275H92.2829V35.9725H89.9699V37.7005H93.0839V38.6455H88.8269V32.3545Z" fill="#227300"/>
<path d="M97.5372 33.2995H95.6382V32.3545H100.579V33.2995H98.6802V38.6455H97.5372V33.2995Z" fill="#227300"/>
<path d="M103.398 32.3545H105.918C106.608 32.3545 107.16 32.5375 107.574 32.9035C107.994 33.2695 108.204 33.7705 108.204 34.4065C108.204 35.0665 107.997 35.5705 107.583 35.9185C107.169 36.2605 106.611 36.4315 105.909 36.4315H104.541V38.6455H103.398V32.3545ZM105.774 35.4865C106.632 35.4865 107.061 35.1265 107.061 34.4065C107.061 33.6685 106.632 33.2995 105.774 33.2995H104.541V35.4865H105.774Z" fill="#227300"/>
<path d="M111.026 32.3545H112.169V37.7005H115.193V38.6455H111.026V32.3545Z" fill="#227300"/>
<path d="M120.221 32.3545H121.328L123.839 38.6455H122.678L122.102 37.1965H119.438L118.871 38.6455H117.701L120.221 32.3545ZM121.787 36.2515L120.77 33.5785L119.753 36.2515H121.787Z" fill="#227300"/>
<path d="M129.53 38.7805C128.87 38.7805 128.285 38.6485 127.775 38.3845C127.265 38.1145 126.869 37.7335 126.587 37.2415C126.305 36.7435 126.164 36.1645 126.164 35.5045C126.164 34.8445 126.305 34.2685 126.587 33.7765C126.869 33.2785 127.265 32.8945 127.775 32.6245C128.285 32.3545 128.87 32.2195 129.53 32.2195C130.4 32.2195 131.126 32.4265 131.708 32.8405V33.9295C131.186 33.4855 130.493 33.2635 129.629 33.2635C129.167 33.2635 128.762 33.3565 128.414 33.5425C128.066 33.7225 127.796 33.9805 127.604 34.3165C127.412 34.6525 127.316 35.0485 127.316 35.5045C127.316 35.9605 127.412 36.3565 127.604 36.6925C127.802 37.0285 128.075 37.2895 128.423 37.4755C128.771 37.6555 129.173 37.7455 129.629 37.7455C130.073 37.7455 130.469 37.6915 130.817 37.5835C131.165 37.4695 131.486 37.2895 131.78 37.0435V38.1325C131.228 38.5645 130.478 38.7805 129.53 38.7805Z" fill="#227300"/>
<path d="M134.781 32.3545H139.038V33.2995H135.924V35.0275H138.237V35.9725H135.924V37.7005H139.038V38.6455H134.781V32.3545Z" fill="#227300"/>
</svg>
