<svg width="20" height="20" viewBox="0 0 20 20" fill="none" xmlns="http://www.w3.org/2000/svg">
<path d="M17.4998 9.58336C17.5026 10.6832 17.2456 11.7683 16.7498 12.75C16.1618 13.9265 15.2579 14.916 14.1393 15.6078C13.0207 16.2995 11.7316 16.6662 10.4164 16.6667C9.31653 16.6696 8.23152 16.4126 7.24976 15.9167L2.49976 17.5L4.08309 12.75C3.5872 11.7683 3.33022 10.6832 3.33309 9.58336C3.3336 8.26815 3.70027 6.97907 4.39202 5.86048C5.08378 4.7419 6.0733 3.838 7.24976 3.25002C8.23152 2.75413 9.31653 2.49716 10.4164 2.50002H10.8331C12.57 2.59585 14.2106 3.32899 15.4407 4.55907C16.6708 5.78915 17.4039 7.42973 17.4998 9.16669V9.58336Z" stroke="#227300" stroke-width="1.5" stroke-linecap="round" stroke-linejoin="round"/>
</svg>
