<svg width="73" height="70" viewBox="0 0 73 70" fill="none" xmlns="http://www.w3.org/2000/svg">
<g opacity="0.3">
<path d="M44.5995 39.392C43.8974 38.4055 42.8463 37.6731 41.6031 37.3042C40.3598 36.9353 38.991 36.9496 37.7007 37.345C36.4105 37.7404 35.2679 38.4957 34.4435 39.4983C33.6191 40.5008 33.157 41.6969 33.1261 42.9081" stroke="black" stroke-width="3" stroke-linecap="round"/>
<circle cx="27.378" cy="31.1259" r="2" transform="rotate(-17.2431 27.378 31.1259)" fill="black"/>
<circle cx="42.6592" cy="26.3837" r="2" transform="rotate(-17.2431 42.6592 26.3837)" fill="black"/>
<path d="M52.6523 21.2559C51.1376 16.3942 47.7067 12.348 43.1144 10.0073C38.5221 7.66671 33.1445 7.22338 28.1647 8.77488C23.1849 10.3264 19.0107 13.7456 16.5605 18.2804C14.1103 22.8152 13.5847 28.0941 15.0994 32.9558C21.7624 54.3418 14.2778 63.3771 14.2778 63.3771L70.6073 45.8273C70.6073 45.8273 59.3153 42.6419 52.6523 21.2559Z" stroke="black" stroke-width="3" stroke-linecap="round" stroke-linejoin="round"/>
<path d="M40.8047 64.6885C40.2458 65.6009 39.4435 66.3583 38.4782 66.8849C37.513 67.4114 36.4186 67.6885 35.3047 67.6885C34.1908 67.6885 33.0964 67.4114 32.1311 66.8849C31.1659 66.3583 30.3636 65.6009 29.8047 64.6885" stroke="black" stroke-width="3" stroke-linecap="round" stroke-linejoin="round"/>
</g>
</svg>
