<svg width="24" height="24" viewBox="0 0 24 24" fill="none" xmlns="http://www.w3.org/2000/svg">
<g clip-path="url(#clip0_1_4898)">
<path opacity="0.67" fill-rule="evenodd" clip-rule="evenodd" d="M23.6568 7.37866L17.1108 0.436621C16.884 0.197821 16.5636 0.000976562 16.2348 0.000976562H2.3748C1.0488 0.000976562 0 1.20098 0 2.52578V10.9258C0 11.5882 0.524388 12.001 1.18799 12.001H1.19279C1.85639 12.001 2.4 11.5882 2.4 10.9258V3.72578C2.4 3.06338 2.91241 2.40098 3.57601 2.40098H14.4V7.32578C14.4 8.65178 15.4488 9.60098 16.776 9.60098H21.6V10.9258C21.6 11.5882 22.1244 12.001 22.788 12.001H22.7928C23.4564 12.001 24 11.5882 24 10.9258V8.20542C24 7.89702 23.8692 7.60186 23.6568 7.37866ZM4.77481 18.1258C4.77481 17.8075 4.64836 17.5024 4.42332 17.2773C4.19827 17.0523 3.89306 16.9258 3.5748 16.9258H2.3748V19.3258H3.5748C3.89306 19.3258 4.19827 19.1994 4.42332 18.9744C4.64836 18.7493 4.77481 18.444 4.77481 18.1258ZM7.17001 17.8066C7.19607 18.295 7.12242 18.7836 6.95354 19.2426C6.78466 19.7016 6.5241 20.1213 6.18772 20.4763C5.85134 20.8313 5.44621 21.1142 4.99698 21.3076C4.54776 21.5009 4.06387 21.6007 3.5748 21.601H2.4V22.9258C2.4 23.5882 1.85639 24.001 1.19279 24.001H1.18682C0.524416 24.001 0 23.5882 0 22.9258V15.7258C0 15.0634 0.512413 14.401 1.17601 14.401H3.372C5.3208 14.401 7.06801 15.8602 7.17001 17.8066ZM13.2 18.1258C13.2 17.4634 12.6372 16.801 11.976 16.801H10.8V21.601H11.976C12.6372 21.601 13.2 21.1882 13.2 20.5258V18.1258ZM15.6 18.001V20.401C15.6 22.381 13.98 24.001 12 24.001H9.47399C9.33285 24.001 9.19311 23.9731 9.06273 23.9191C8.93235 23.865 8.81388 23.7859 8.71414 23.686C8.61439 23.5862 8.53531 23.4676 8.48141 23.3371C8.42751 23.2067 8.39984 23.0669 8.4 22.9258V15.5758C8.4 14.9266 8.92561 14.401 9.57601 14.401H12C13.98 14.401 15.6 16.021 15.6 18.001ZM24 15.6322V15.6634C24 16.3258 23.4372 16.801 22.776 16.801H19.2V19.201H22.776C23.0999 19.2072 23.4087 19.3392 23.6372 19.5689C23.8656 19.7987 23.9957 20.1082 24 20.4322V20.4634C24 21.1258 23.4372 21.601 22.776 21.601H19.2V22.9258C19.2 23.5882 18.6564 24.001 17.9928 24.001H17.9868C17.3244 24.001 16.8 23.5882 16.8 22.9258V15.7258C16.8 15.0634 17.3124 14.401 17.976 14.401H22.776C23.0999 14.4072 23.4087 14.5392 23.6372 14.7689C23.8656 14.9987 23.9957 15.3082 24 15.6322Z" fill="black"/>
</g>
<defs>
<clipPath id="clip0_1_4898">
<rect width="24" height="24" fill="white"/>
</clipPath>
</defs>
</svg>
