<svg width="56" height="55" viewBox="0 0 56 55" fill="none" xmlns="http://www.w3.org/2000/svg">
<path d="M27.4188 0.57142L0 20.1562H56L28.5812 0.57142C28.2335 0.323065 27.7665 0.323065 27.4188 0.57142Z" fill="#F2F2F2"/>
<rect y="20" width="56" height="21" fill="#F2F2F2"/>
<rect y="20" width="56" height="21" fill="black" fill-opacity="0.1"/>
<rect x="5" y="7" width="46" height="35" rx="2" fill="white"/>
<rect x="5" y="7" width="46" height="35" rx="2" fill="#A1CF6D" fill-opacity="0.6"/>
<line x1="9.5" y1="13.5" x2="30.5" y2="13.5" stroke="white" stroke-linecap="round"/>
<line x1="9.5" y1="18.5" x2="24.5" y2="18.5" stroke="white" stroke-linecap="round"/>
<path fill-rule="evenodd" clip-rule="evenodd" d="M4 20.1562H52L56 20.1563H0.377358L4 20.1562ZM0 20.1563V50.1563C0 52.3654 1.79086 54.1563 4 54.1563H52C54.2091 54.1563 56 52.3654 56 50.1563V20.1563L28.5812 39.7411C28.2335 39.9895 27.7665 39.9895 27.4188 39.7411L0 20.1563Z" fill="#F2F2F2"/>
</svg>
