<svg width="105" height="20" viewBox="0 0 105 20" fill="none" xmlns="http://www.w3.org/2000/svg">
<mask id="path-1-outside-1_2479_55016" maskUnits="userSpaceOnUse" x="0" y="-0.100464" width="105" height="20" fill="black">
<rect fill="white" y="-0.100464" width="105" height="20"/>
<path d="M1.12912 18.6671H5.08034V17.505C6.26829 18.383 7.84362 18.8995 9.28981 18.8995C12.5696 18.8995 15.0488 16.6011 15.0488 13.5796C15.0488 11.8751 14.1966 10.4548 13.5251 9.78332C11.4849 7.74315 7.68867 6.71015 6.88809 5.90958C6.70732 5.7288 6.57819 5.4189 6.57819 5.13483C6.57819 4.46338 7.06887 4.05018 7.86944 4.05018C9.03156 4.05018 9.80631 4.64415 10.3228 5.88375L10.4003 6.11618H14.3515V1.13196H10.4003V2.21661C9.36729 1.36439 7.99857 0.899536 6.50072 0.899536C3.22095 0.899536 1 2.99136 1 6.09035C1 7.4849 1.49067 8.64702 2.60115 9.7575C4.48637 11.6427 7.58537 12.1334 8.72166 13.2697C9.05739 13.6054 9.16069 13.8637 9.16069 14.1994C9.16069 14.8967 8.61836 15.3357 7.76614 15.3357C6.44907 15.3357 5.62267 14.6384 5.08034 13.0373H1.12912V18.6671Z"/>
<path d="M14.4257 18.6671H21.3727V14.8192H19.9265L20.6754 12.6241H25.1689L25.8404 14.8192H24.3167V18.6671H33.4846V14.4576H32.1933L28.8361 5.34143H30.2564V1.13196H17.628V5.34143H19.0484L15.7428 14.4576H14.4257V18.6671ZM21.3727 10.4289L22.9738 5.57385H23.0255L24.4975 10.4289H21.3727Z"/>
<path d="M32.9075 18.6671H49.6162V11.6427H45.4067V14.4576H41.2747V5.34143H42.9275V1.13196H32.9075V5.34143H34.4828V14.4576H32.9075V18.6671Z"/>
<path d="M52.0675 18.8221H57.5424L62.8106 5.34143H64.1019V1.13196H57.0259V5.34143H58.472L55.7604 12.8048H55.7088L53.1263 5.34143H54.5983V1.13196H45.1722V5.34143H46.4893L52.0675 18.8221Z"/>
<path d="M63.634 18.6671H80.3685V13.0631H75.7717V14.4576H71.7947V11.5911H75.2552V8.02723H71.7947V5.34143H75.7717V6.73598H80.3685V1.13196H63.634V5.34143H65.0027V14.4576H63.634V18.6671Z"/>
<path d="M80.1322 18.6671H90.3072V14.9741H88.4478L91.4177 12.0559L94.6458 14.9741H92.8123V18.6671H103.786V14.4576H102.03L95.7549 9.29265L100.507 5.34143H103.115V1.13196H92.7582V4.82493H94.2561L91.6736 7.3816L88.7295 4.82493H90.4598V1.13196H80.2355V5.34143H82.0949L87.8539 9.98992L82.0949 14.4576H80.1322V18.6671Z"/>
</mask>
<path d="M1.12912 18.6671H5.08034V17.505C6.26829 18.383 7.84362 18.8995 9.28981 18.8995C12.5696 18.8995 15.0488 16.6011 15.0488 13.5796C15.0488 11.8751 14.1966 10.4548 13.5251 9.78332C11.4849 7.74315 7.68867 6.71015 6.88809 5.90958C6.70732 5.7288 6.57819 5.4189 6.57819 5.13483C6.57819 4.46338 7.06887 4.05018 7.86944 4.05018C9.03156 4.05018 9.80631 4.64415 10.3228 5.88375L10.4003 6.11618H14.3515V1.13196H10.4003V2.21661C9.36729 1.36439 7.99857 0.899536 6.50072 0.899536C3.22095 0.899536 1 2.99136 1 6.09035C1 7.4849 1.49067 8.64702 2.60115 9.7575C4.48637 11.6427 7.58537 12.1334 8.72166 13.2697C9.05739 13.6054 9.16069 13.8637 9.16069 14.1994C9.16069 14.8967 8.61836 15.3357 7.76614 15.3357C6.44907 15.3357 5.62267 14.6384 5.08034 13.0373H1.12912V18.6671Z" fill="#A1CF6D"/>
<path d="M14.4257 18.6671H21.3727V14.8192H19.9265L20.6754 12.6241H25.1689L25.8404 14.8192H24.3167V18.6671H33.4846V14.4576H32.1933L28.8361 5.34143H30.2564V1.13196H17.628V5.34143H19.0484L15.7428 14.4576H14.4257V18.6671ZM21.3727 10.4289L22.9738 5.57385H23.0255L24.4975 10.4289H21.3727Z" fill="#A1CF6D"/>
<path d="M32.9075 18.6671H49.6162V11.6427H45.4067V14.4576H41.2747V5.34143H42.9275V1.13196H32.9075V5.34143H34.4828V14.4576H32.9075V18.6671Z" fill="#A1CF6D"/>
<path d="M52.0675 18.8221H57.5424L62.8106 5.34143H64.1019V1.13196H57.0259V5.34143H58.472L55.7604 12.8048H55.7088L53.1263 5.34143H54.5983V1.13196H45.1722V5.34143H46.4893L52.0675 18.8221Z" fill="#A1CF6D"/>
<path d="M63.634 18.6671H80.3685V13.0631H75.7717V14.4576H71.7947V11.5911H75.2552V8.02723H71.7947V5.34143H75.7717V6.73598H80.3685V1.13196H63.634V5.34143H65.0027V14.4576H63.634V18.6671Z" fill="#A1CF6D"/>
<path d="M80.1322 18.6671H90.3072V14.9741H88.4478L91.4177 12.0559L94.6458 14.9741H92.8123V18.6671H103.786V14.4576H102.03L95.7549 9.29265L100.507 5.34143H103.115V1.13196H92.7582V4.82493H94.2561L91.6736 7.3816L88.7295 4.82493H90.4598V1.13196H80.2355V5.34143H82.0949L87.8539 9.98992L82.0949 14.4576H80.1322V18.6671Z" fill="#A1CF6D"/>
<path d="M1.12912 18.6671H5.08034V17.505C6.26829 18.383 7.84362 18.8995 9.28981 18.8995C12.5696 18.8995 15.0488 16.6011 15.0488 13.5796C15.0488 11.8751 14.1966 10.4548 13.5251 9.78332C11.4849 7.74315 7.68867 6.71015 6.88809 5.90958C6.70732 5.7288 6.57819 5.4189 6.57819 5.13483C6.57819 4.46338 7.06887 4.05018 7.86944 4.05018C9.03156 4.05018 9.80631 4.64415 10.3228 5.88375L10.4003 6.11618H14.3515V1.13196H10.4003V2.21661C9.36729 1.36439 7.99857 0.899536 6.50072 0.899536C3.22095 0.899536 1 2.99136 1 6.09035C1 7.4849 1.49067 8.64702 2.60115 9.7575C4.48637 11.6427 7.58537 12.1334 8.72166 13.2697C9.05739 13.6054 9.16069 13.8637 9.16069 14.1994C9.16069 14.8967 8.61836 15.3357 7.76614 15.3357C6.44907 15.3357 5.62267 14.6384 5.08034 13.0373H1.12912V18.6671Z" stroke="#376830" stroke-width="1.2067" mask="url(#path-1-outside-1_2479_55016)"/>
<path d="M14.4257 18.6671H21.3727V14.8192H19.9265L20.6754 12.6241H25.1689L25.8404 14.8192H24.3167V18.6671H33.4846V14.4576H32.1933L28.8361 5.34143H30.2564V1.13196H17.628V5.34143H19.0484L15.7428 14.4576H14.4257V18.6671ZM21.3727 10.4289L22.9738 5.57385H23.0255L24.4975 10.4289H21.3727Z" stroke="#376830" stroke-width="1.2067" mask="url(#path-1-outside-1_2479_55016)"/>
<path d="M32.9075 18.6671H49.6162V11.6427H45.4067V14.4576H41.2747V5.34143H42.9275V1.13196H32.9075V5.34143H34.4828V14.4576H32.9075V18.6671Z" stroke="#376830" stroke-width="1.2067" mask="url(#path-1-outside-1_2479_55016)"/>
<path d="M52.0675 18.8221H57.5424L62.8106 5.34143H64.1019V1.13196H57.0259V5.34143H58.472L55.7604 12.8048H55.7088L53.1263 5.34143H54.5983V1.13196H45.1722V5.34143H46.4893L52.0675 18.8221Z" stroke="#376830" stroke-width="1.2067" mask="url(#path-1-outside-1_2479_55016)"/>
<path d="M63.634 18.6671H80.3685V13.0631H75.7717V14.4576H71.7947V11.5911H75.2552V8.02723H71.7947V5.34143H75.7717V6.73598H80.3685V1.13196H63.634V5.34143H65.0027V14.4576H63.634V18.6671Z" stroke="#376830" stroke-width="1.2067" mask="url(#path-1-outside-1_2479_55016)"/>
<path d="M80.1322 18.6671H90.3072V14.9741H88.4478L91.4177 12.0559L94.6458 14.9741H92.8123V18.6671H103.786V14.4576H102.03L95.7549 9.29265L100.507 5.34143H103.115V1.13196H92.7582V4.82493H94.2561L91.6736 7.3816L88.7295 4.82493H90.4598V1.13196H80.2355V5.34143H82.0949L87.8539 9.98992L82.0949 14.4576H80.1322V18.6671Z" stroke="#376830" stroke-width="1.2067" mask="url(#path-1-outside-1_2479_55016)"/>
</svg>
