<svg xmlns="http://www.w3.org/2000/svg" width="20" height="20" fill="none" opacity=".8" stroke="#fff" stroke-linecap="round" stroke-linejoin="round" xmlns:v="https://vecta.io/nano"><path d="M14 1v9"/><path d="M15.667 3h-2.5a1.13 1.13 0 0 0-.825.366c-.219.234-.342.552-.342.884s.123.649.342.884a1.13 1.13 0 0 0 .825.366h1.667a1.13 1.13 0 0 1 .825.366c.219.234.342.552.342.884s-.123.649-.342.884a1.13 1.13 0 0 1-.825.366H12"/><path d="M9 4S5 4 3 8s1.5 7.5 1.5 7.5l-2 2H9c3 0 6.2-1.6 7-6" stroke-width="1.5"/></svg>