<svg width="4" height="18" viewBox="0 0 4 18" fill="none" xmlns="http://www.w3.org/2000/svg">
<path fill-rule="evenodd" clip-rule="evenodd" d="M2 9.99994C2.5522 9.99994 3 9.55224 3 8.99994C3 8.44774 2.5522 7.99994 2 7.99994C1.4477 7.99994 1 8.44774 1 8.99994C1 9.55224 1.4477 9.99994 2 9.99994Z" stroke="black" stroke-width="2" stroke-linecap="round" stroke-linejoin="round"/>
<path fill-rule="evenodd" clip-rule="evenodd" d="M2 3C2.5522 3 3 2.55228 3 2C3 1.44772 2.5522 1 2 1C1.4477 1 1 1.44772 1 2C1 2.55228 1.4477 3 2 3Z" stroke="black" stroke-width="2" stroke-linecap="round" stroke-linejoin="round"/>
<path fill-rule="evenodd" clip-rule="evenodd" d="M2 16.9999C2.5522 16.9999 3 16.5522 3 15.9999C3 15.4477 2.5522 14.9999 2 14.9999C1.4477 14.9999 1 15.4477 1 15.9999C1 16.5522 1.4477 16.9999 2 16.9999Z" stroke="black" stroke-width="2" stroke-linecap="round" stroke-linejoin="round"/>
</svg>
